<svg width="217" height="39" viewBox="0 0 217 39" fill="none" xmlns="http://www.w3.org/2000/svg">
<path d="M15.5584 0.142944C17.0148 0.142944 18.5005 0.261629 20.0164 0.498999C21.5318 0.736369 23.0062 1.09804 24.4388 1.5832C25.8714 2.06837 27.2212 2.67783 28.4883 3.41119C29.7548 4.14455 30.8617 5.00181 31.8093 5.98297C32.7564 6.96452 33.5055 8.07198 34.0558 9.30695C34.6065 10.5415 34.8814 11.908 34.8814 13.406C34.8814 14.9044 34.5854 16.2921 33.9933 17.5684C33.4011 18.8455 32.5723 19.9481 31.5069 20.8763C30.4414 21.805 29.1686 22.5327 27.6887 23.0604C26.2084 23.5876 24.5806 23.8519 22.8046 23.8519C21.9637 23.8519 21.0935 23.7965 20.1937 23.6855C19.2938 23.5748 18.3939 23.4032 17.494 23.171C16.5942 22.9389 15.7091 22.6514 14.8389 22.3086C13.9688 21.9657 13.1368 21.5568 12.3436 21.082C11.4082 21.9048 10.3279 22.5459 9.10224 23.005C7.87661 23.4641 6.58304 23.6935 5.22153 23.6935C4.48723 23.6935 3.80062 23.6197 3.16126 23.4722C2.5219 23.3242 1.96848 23.1133 1.50054 22.839C1.03261 22.5648 0.665905 22.2324 0.399542 21.8418C0.133178 21.4517 0 21.0187 0 20.5439C0 20.1325 0.115632 19.7476 0.346451 19.3888C0.577269 19.0299 0.902573 18.7135 1.32326 18.4389C1.74351 18.1646 2.24699 17.9481 2.83281 17.7901C3.41908 17.6317 4.06114 17.5527 4.75989 17.5527C6.82016 17.5527 9.25927 18.2284 12.0772 19.5788C12.5983 18.9986 13.0243 18.3443 13.356 17.6161C13.7227 16.8038 14.0102 15.9677 14.2176 15.1077C14.4246 14.2476 14.6081 13.3904 14.7683 12.5355C14.928 11.681 15.0936 10.8474 15.2655 10.0347C15.4369 9.22235 15.674 8.45731 15.9759 7.73999C16.2778 7.02266 16.6742 6.36589 17.166 5.76925C17.6574 5.17342 18.2999 4.6642 19.0931 4.24199C19.2114 4.18946 19.3181 4.163 19.4126 4.163C19.5781 4.163 19.7352 4.21592 19.8832 4.32138C20.0312 4.42723 20.105 4.57479 20.105 4.76444C20.105 4.98617 19.9925 5.15498 19.7676 5.27086C19.1399 5.59804 18.6279 6.00662 18.2315 6.4974C17.8346 6.98818 17.5062 7.5395 17.2457 8.15137C16.9852 8.76324 16.7777 9.42283 16.6243 10.1297C16.47 10.8366 16.3224 11.5752 16.1802 12.3454C16.0614 12.9786 15.9314 13.6406 15.7892 14.3318C15.647 15.0231 15.4698 15.7091 15.2565 16.3896C15.0432 17.07 14.7737 17.7348 14.4484 18.3839C14.1226 19.0327 13.7231 19.6317 13.2493 20.1803C13.2727 20.1907 13.2876 20.1987 13.2939 20.2039C13.2997 20.2095 13.3146 20.2171 13.3384 20.2276C14.8421 21.0295 16.4047 21.6362 18.0272 22.0479C19.6492 22.4593 21.2357 22.6654 22.7871 22.6654C24.4681 22.6654 25.9749 22.4176 27.3072 21.9216C28.639 21.4261 29.767 20.7584 30.6907 19.9196C31.614 19.0808 32.3186 18.1021 32.8041 16.9838C33.2895 15.8655 33.5321 14.6839 33.5321 13.4385C33.5321 12.1722 33.2949 10.993 32.8216 9.90118C32.3478 8.80895 31.6999 7.81457 30.877 6.91801C30.0536 6.02146 29.0772 5.22435 27.9465 4.52827C26.8158 3.8318 25.5961 3.2492 24.2881 2.77927C22.9797 2.31015 21.6065 1.95129 20.1676 1.70309C18.7291 1.4553 17.2875 1.3314 15.8432 1.3314C13.9013 1.3314 12.1281 1.47655 10.524 1.76644C8.91956 2.05674 7.54051 2.48136 6.38597 3.0403C5.23188 3.59964 4.3347 4.28529 3.69534 5.09764C3.05598 5.91039 2.73652 6.83341 2.73652 7.86749C2.73652 8.45851 2.83416 8.98097 3.02943 9.43445C3.2247 9.88794 3.47352 10.2809 3.77543 10.6133C4.07734 10.9457 4.40579 11.228 4.76079 11.4601C5.11624 11.6923 5.4474 11.8795 5.7556 12.0219C6.06336 12.1642 6.32657 12.2673 6.54569 12.3306C6.76436 12.394 6.89215 12.4308 6.92769 12.4413C7.08157 12.473 7.20305 12.5443 7.29169 12.655C7.38033 12.7657 7.42487 12.89 7.42487 13.0271C7.42487 13.2067 7.35378 13.3438 7.2116 13.4385C7.06987 13.5335 6.91554 13.5808 6.74996 13.5808C6.51285 13.5808 6.21679 13.5307 5.86179 13.4305C5.50634 13.3302 5.13064 13.177 4.7338 12.9713C4.33695 12.7657 3.94055 12.507 3.54371 12.1959C3.14686 11.8847 2.78871 11.5183 2.46926 11.096C2.1498 10.6742 1.89199 10.1939 1.69671 9.65579C1.50099 9.11769 1.4038 8.52186 1.4038 7.86749C1.4038 6.67543 1.74396 5.60205 2.42516 4.64696C3.10592 3.69227 4.06789 2.88232 5.31152 2.21753C6.55469 1.55273 8.04354 1.0411 9.77805 0.682239C11.5117 0.322576 13.4387 0.142944 15.5584 0.142944ZM11.1184 20.4806C9.88693 19.9004 8.74454 19.4625 7.69078 19.167C6.63703 18.8719 5.67191 18.724 4.79588 18.724C4.2987 18.724 3.83977 18.7741 3.41953 18.8743C2.99883 18.9746 2.63483 19.1093 2.32708 19.2777C2.01887 19.4465 1.77635 19.6418 1.59908 19.8631C1.4218 20.0844 1.33271 20.317 1.33271 20.5596C1.33271 20.7917 1.4128 21.0239 1.57253 21.256C1.73226 21.4882 1.97478 21.6939 2.30053 21.8735C2.62629 22.0532 3.03168 22.2007 3.51716 22.3166C4.00264 22.4329 4.57092 22.4906 5.22198 22.4906C6.33467 22.4906 7.39743 22.3142 8.40979 21.9605C9.42215 21.6069 10.3247 21.1137 11.1184 20.4806Z" fill="white"/>
<path d="M50.528 19.0084C50.4808 19.093 50.3831 19.2695 50.2351 19.5385C50.0871 19.8075 49.8977 20.1159 49.6668 20.4643C49.436 20.8124 49.1665 21.1764 48.8588 21.5565C48.5505 21.9363 48.2077 22.2847 47.8284 22.6011C47.4495 22.9178 47.041 23.1788 46.6032 23.3845C46.165 23.5902 45.7033 23.6933 45.2179 23.6933C44.5312 23.6933 43.9535 23.498 43.486 23.1079C43.0181 22.7177 42.678 22.227 42.4647 21.6359C42.062 22.2374 41.5824 22.7149 41.0262 23.0682C40.4697 23.4218 39.9131 23.5982 39.357 23.5982C38.9187 23.5982 38.5223 23.5269 38.1669 23.3845C37.8114 23.2422 37.51 23.0417 37.2612 22.7831C37.0123 22.5245 36.8198 22.2213 36.6839 21.8729C36.5476 21.5245 36.4796 21.1448 36.4796 20.7334C36.4796 19.9106 36.6362 19.1853 36.9502 18.5573C37.2639 17.9298 37.6634 17.4046 38.1493 16.9824C38.6348 16.5606 39.1707 16.2438 39.7565 16.0329C40.3423 15.822 40.9079 15.7161 41.4528 15.7161C41.8195 15.7161 42.1569 15.761 42.4651 15.8504C42.7729 15.9403 43.0361 16.0381 43.2552 16.1432C43.4743 16.2486 43.6431 16.3464 43.7614 16.4359C43.8797 16.5257 43.945 16.5758 43.9567 16.5862C44.0872 16.7233 44.1524 16.8661 44.1524 17.0136C44.1524 17.172 44.0872 17.312 43.9567 17.433C43.8262 17.5545 43.6728 17.6151 43.495 17.6151C43.3056 17.6151 43.1454 17.5569 43.0154 17.4411C42.9916 17.4198 42.9385 17.3805 42.8557 17.3224C42.7729 17.2646 42.6604 17.2037 42.5182 17.1403C42.3765 17.077 42.2078 17.0217 42.012 16.9739C41.8168 16.9262 41.595 16.9026 41.3461 16.9026C40.979 16.9026 40.588 16.9768 40.1741 17.1243C39.7597 17.2723 39.3808 17.5016 39.0375 17.8128C38.6938 18.1243 38.4071 18.5144 38.1759 18.984C37.9451 19.4535 37.8294 20.0104 37.8294 20.654C37.8294 20.8545 37.8528 21.0573 37.9005 21.2634C37.9478 21.4691 38.0305 21.6568 38.1493 21.8252C38.2677 21.994 38.4274 22.1315 38.6285 22.2366C38.8296 22.342 39.0785 22.395 39.3745 22.395C39.5878 22.395 39.8334 22.3316 40.1115 22.2049C40.3896 22.0786 40.6559 21.8833 40.9106 21.6195C41.1653 21.3561 41.3961 21.0237 41.6035 20.6223C41.8105 20.2213 41.9558 19.7466 42.0386 19.1981C42.062 19.0505 42.1389 18.9266 42.2694 18.826C42.3994 18.7258 42.5533 18.6756 42.731 18.6756C42.8971 18.6756 43.042 18.7338 43.1661 18.8496C43.2903 18.9659 43.3583 19.0978 43.3704 19.2454C43.3821 19.4459 43.406 19.7282 43.4415 20.0922C43.477 20.4563 43.5567 20.818 43.6813 21.1764C43.8055 21.5353 43.9922 21.8464 44.241 22.1103C44.4899 22.3741 44.8327 22.506 45.2714 22.506C45.5553 22.506 45.8365 22.4375 46.115 22.3003C46.3931 22.1636 46.6658 21.9816 46.9321 21.7542C47.1985 21.5277 47.4531 21.2691 47.6957 20.9788C47.9382 20.6889 48.1604 20.3958 48.3616 20.1007C48.5627 19.8051 48.7404 19.5205 48.8943 19.2458C49.0482 18.9715 49.1782 18.7342 49.2848 18.5337C49.3438 18.4178 49.4297 18.328 49.5427 18.2646C49.6551 18.2013 49.7762 18.1696 49.9067 18.1696C50.1078 18.1696 50.2707 18.2358 50.3948 18.3677C50.519 18.4996 50.5816 18.6395 50.5816 18.7871C50.5816 18.8609 50.564 18.9347 50.528 19.0084Z" fill="white"/>
<path d="M53.2456 21.9996C53.4351 21.6516 53.6542 21.2691 53.9025 20.8525C54.1513 20.4355 54.4177 20.0137 54.7016 19.5862C54.986 19.1592 55.2847 18.7342 55.5988 18.3124C55.9124 17.8906 56.2409 17.4892 56.5842 17.1095C56.9275 16.7402 57.2739 16.474 57.6231 16.31C57.9722 16.1468 58.3007 16.0646 58.6089 16.0646C59.2244 16.0646 59.6802 16.2651 59.9767 16.666C60.2723 17.067 60.4208 17.563 60.4208 18.1536C60.4208 18.2907 60.4118 18.4571 60.3938 18.6524C60.3762 18.8477 60.3582 19.0558 60.3407 19.2775C60.3231 19.4992 60.3051 19.7234 60.2871 19.9503C60.2696 20.1773 60.2606 20.391 60.2606 20.5914C60.2606 20.8445 60.2754 21.0874 60.3051 21.3192C60.3344 21.5514 60.3911 21.7542 60.4739 21.9287C60.5567 22.1027 60.675 22.2398 60.8293 22.34C60.9832 22.4403 61.1848 22.4904 61.4331 22.4904C61.8831 22.4904 62.3213 22.3348 62.7474 22.0237C63.1735 21.7125 63.5672 21.3433 63.9285 20.9158C64.2893 20.4884 64.6034 20.0534 64.8698 19.6103C65.1361 19.1672 65.3346 18.8084 65.4646 18.5337C65.5235 18.4178 65.6095 18.328 65.7219 18.2647C65.8344 18.2013 65.9559 18.1696 66.0864 18.1696C66.2875 18.1696 66.4504 18.2358 66.5746 18.3677C66.6988 18.4996 66.7608 18.6396 66.7608 18.7871C66.7608 18.8613 66.7433 18.9351 66.7078 19.0088C66.6605 19.0935 66.5656 19.2675 66.4238 19.5309C66.2817 19.7947 66.0954 20.0983 65.8641 20.4411C65.6333 20.7839 65.3638 21.148 65.056 21.5333C64.7478 21.9186 64.4077 22.2691 64.0347 22.5858C63.6617 22.9026 63.259 23.1664 62.8266 23.3773C62.3947 23.5882 61.9416 23.6941 61.4678 23.6941C60.9351 23.6941 60.5027 23.6019 60.1715 23.4174C59.8399 23.233 59.5794 22.99 59.39 22.6893C59.2005 22.3886 59.0728 22.0562 59.008 21.6921C58.9427 21.328 58.9103 20.9615 58.9103 20.5922C58.9103 20.4339 58.9193 20.2546 58.9373 20.0542C58.9549 19.8537 58.9787 19.6428 59.0084 19.421C59.0377 19.1993 59.0615 18.978 59.0795 18.7562C59.0975 18.5345 59.1065 18.3236 59.1065 18.1231C59.1065 17.7855 59.0471 17.5558 58.9288 17.4347C58.8105 17.3136 58.7038 17.2526 58.6093 17.2526C58.4199 17.2526 58.2035 17.3505 57.961 17.5453C57.718 17.7406 57.4638 17.9964 57.1974 18.3132C56.9311 18.6299 56.6584 18.9856 56.3808 19.3813C56.1023 19.7771 55.8418 20.1704 55.5992 20.5606C55.3563 20.9511 55.1313 21.3228 54.9243 21.6765C54.7169 22.0301 54.554 22.3228 54.4362 22.555C54.199 22.998 53.9624 23.2963 53.7257 23.4491C53.4886 23.6019 53.2461 23.6785 52.9977 23.6785C52.654 23.6785 52.379 23.5862 52.1721 23.4018C51.9647 23.2174 51.8612 22.9563 51.8612 22.6183C51.8612 22.5445 51.8729 22.3994 51.8967 22.1833C51.9201 21.9672 51.9498 21.7085 51.9853 21.4078C52.0209 21.1071 52.0564 20.7827 52.092 20.4343C52.1275 20.0862 52.1631 19.7406 52.1986 19.3978C52.2342 19.0554 52.2634 18.7358 52.2873 18.4403C52.3107 18.1452 52.3228 17.897 52.3228 17.6965C52.3228 17.4327 52.3107 17.1797 52.2873 16.9367C52.2634 16.6941 52.2162 16.5461 52.1451 16.4936C52.0384 16.5253 51.849 16.723 51.5768 17.087C51.3046 17.4511 50.9554 18.0918 50.5289 19.0101C50.4695 19.1263 50.3804 19.2157 50.2625 19.2791C50.1442 19.3424 50.0196 19.3741 49.8895 19.3741C49.688 19.3741 49.5282 19.3136 49.4099 19.1921C49.2916 19.071 49.2322 18.9311 49.2322 18.7727C49.2322 18.6989 49.2497 18.6199 49.2853 18.5353C49.818 17.4066 50.3179 16.5754 50.7858 16.0425C51.2533 15.5096 51.7181 15.2434 52.1802 15.2434C52.4524 15.2434 52.6832 15.3044 52.8731 15.4254C53.0621 15.5469 53.2132 15.7081 53.3257 15.9082C53.4382 16.1087 53.521 16.3304 53.5745 16.573C53.6276 16.816 53.6546 17.0638 53.6546 17.3168C53.6546 17.5068 53.6393 17.802 53.6101 18.2029C53.5804 18.6039 53.5417 19.0337 53.4944 19.4928C53.4472 19.9519 53.4027 20.4082 53.3613 20.8621C53.3194 21.314 53.2812 21.6937 53.2456 21.9996Z" fill="white"/>
<path d="M68.377 11C68.377 11.401 68.22 11.7414 67.9064 12.0209C67.5923 12.3003 67.2108 12.4403 66.7608 12.4403C66.3109 12.4403 65.9289 12.3003 65.6153 12.0209C65.3017 11.7414 65.1447 11.401 65.1447 11C65.1447 10.7995 65.186 10.6123 65.2688 10.4383C65.3516 10.2642 65.4668 10.1115 65.6153 9.97916C65.7633 9.84724 65.9347 9.7446 66.1305 9.67042C66.3257 9.59664 66.5359 9.55975 66.7608 9.55975C66.9858 9.55975 67.1959 9.59704 67.3912 9.67042C67.5865 9.7446 67.7579 9.84724 67.9064 9.97916C68.0544 10.1111 68.1696 10.2638 68.2528 10.4383C68.3356 10.6123 68.377 10.7995 68.377 11ZM65.5001 20.2747C65.5001 18.755 65.6067 17.2414 65.8196 15.7322C65.843 15.5846 65.9172 15.4551 66.0414 15.3444C66.1656 15.2338 66.3284 15.178 66.5296 15.178C66.7073 15.178 66.8553 15.239 66.9737 15.3601C67.092 15.4816 67.1514 15.6211 67.1514 15.7795C67.1514 15.8428 67.1365 16.0329 67.1068 16.3493C67.0771 16.6656 67.0416 17.0429 67.0002 17.4808C66.9584 17.9186 66.9233 18.3829 66.8936 18.8737C66.8639 19.3645 66.849 19.8156 66.849 20.227C66.849 20.7867 66.9111 21.2374 67.0353 21.5802C67.1595 21.923 67.3197 22.1897 67.5149 22.3797C67.7102 22.5698 67.9176 22.6961 68.1363 22.7594C68.3554 22.8228 68.5655 22.8545 68.7667 22.8545C69.0978 22.8545 69.4416 22.749 69.797 22.5377C70.1525 22.3268 70.5165 22.0313 70.8895 21.6516C71.2625 21.2719 71.6382 20.8156 72.017 20.2823C72.3959 19.7498 72.7689 19.156 73.136 18.502C73.1949 18.3966 73.2782 18.3148 73.3848 18.2566C73.4915 18.1985 73.6098 18.1696 73.7398 18.1696C73.9293 18.1696 74.0863 18.233 74.2105 18.3597C74.3346 18.4864 74.3972 18.6235 74.3972 18.7711C74.3972 18.8765 74.3733 18.9663 74.3261 19.0401C74.1839 19.2831 74.0066 19.5782 73.7934 19.9262C73.5801 20.2747 73.3376 20.6335 73.0654 21.0028C72.7927 21.3721 72.4939 21.7386 72.1682 22.1027C71.8424 22.4667 71.496 22.7939 71.1293 23.0838C70.7621 23.3741 70.3774 23.6087 69.9747 23.7879C69.572 23.9671 69.1635 24.057 68.7491 24.057C68.2164 24.057 67.7484 23.9567 67.3462 23.7562C66.9435 23.5558 66.6029 23.2867 66.3248 22.9491C66.0463 22.6115 65.8389 22.2133 65.703 21.7542C65.568 21.2955 65.5001 20.8023 65.5001 20.2747ZM67.3826 11C67.3826 10.8525 67.3206 10.7229 67.1959 10.6123C67.0713 10.5016 66.9264 10.4459 66.7608 10.4459C66.5948 10.4459 66.4526 10.5012 66.3347 10.6123C66.2164 10.7229 66.157 10.8525 66.157 11C66.157 11.148 66.216 11.2747 66.3347 11.3797C66.4531 11.4852 66.5952 11.5381 66.7608 11.5381C66.9264 11.5381 67.0717 11.4856 67.1959 11.3797C67.3206 11.2743 67.3826 11.148 67.3826 11Z" fill="white"/>
<path d="M75.2503 21.6833C75.4987 21.9892 75.8186 22.2346 76.2091 22.419C76.6001 22.6035 77.0793 22.6957 77.6476 22.6957C78.2275 22.6957 78.7544 22.5718 79.2282 22.324C79.7015 22.0762 80.1339 21.7518 80.5245 21.3505C80.9155 20.9495 81.2646 20.5012 81.5724 20.0052C81.8801 19.5092 82.1582 19.0132 82.407 18.5177C82.466 18.4014 82.5492 18.3148 82.6558 18.2566C82.7625 18.1985 82.8808 18.1696 83.0113 18.1696C83.2124 18.1696 83.3753 18.233 83.4995 18.3597C83.6237 18.4864 83.6862 18.6235 83.6862 18.7711C83.6862 18.824 83.6799 18.8689 83.6682 18.9054C83.6561 18.9427 83.6385 18.982 83.6146 19.0241C82.798 20.6279 81.9067 21.836 80.942 22.6484C79.9769 23.4607 78.8845 23.8773 77.6651 23.8986C76.8836 23.8986 76.2087 23.7643 75.6404 23.4952C75.0721 23.2262 74.6042 22.8777 74.2375 22.4507C73.8703 22.0237 73.5981 21.5405 73.4204 21.0028C73.2427 20.4647 73.1541 19.9262 73.1541 19.3885C73.1541 18.8505 73.2278 18.3545 73.3759 17.901C73.5239 17.4475 73.7367 17.0517 74.0152 16.7141C74.2933 16.3765 74.6249 16.1127 75.0096 15.9226C75.3943 15.7326 75.8177 15.6379 76.2793 15.6379C76.5515 15.6379 76.821 15.6881 77.0874 15.7883C77.3538 15.8885 77.5936 16.0309 77.8069 16.2153C78.0201 16.4002 78.1911 16.6247 78.322 16.8881C78.4521 17.152 78.5173 17.4527 78.5173 17.7903C78.5173 18.2229 78.4345 18.6291 78.2685 19.0092C78.1025 19.3893 77.8748 19.7426 77.5846 20.0698C77.2944 20.397 76.9479 20.6977 76.5457 20.9719C76.1443 21.2454 75.7124 21.4828 75.2503 21.6833ZM74.7176 20.6544C75.0843 20.5173 75.419 20.3432 75.7209 20.1319C76.0228 19.921 76.2802 19.6889 76.4935 19.4355C76.7068 19.1825 76.8723 18.9162 76.9907 18.6363C77.109 18.3569 77.1684 18.0746 77.1684 17.7895C77.1684 17.4727 77.0798 17.233 76.902 17.0694C76.7243 16.9058 76.5173 16.824 76.2802 16.824C75.9608 16.824 75.6881 16.903 75.4636 17.0614C75.2386 17.2197 75.055 17.4254 74.9129 17.6788C74.7707 17.9322 74.6672 18.2145 74.6019 18.5257C74.5367 18.8368 74.5043 19.1456 74.5043 19.4515C74.5043 19.6416 74.525 19.842 74.5664 20.0529C74.6083 20.2642 74.6582 20.4643 74.7176 20.6544Z" fill="white"/>
<path d="M92.5131 19.0406C92.3826 19.2835 92.2202 19.5706 92.0249 19.903C91.8292 20.2354 91.6073 20.5811 91.359 20.9395C91.1102 21.2984 90.8321 21.6544 90.5243 22.0081C90.2161 22.3617 89.8818 22.6781 89.521 22.9576C89.1597 23.2374 88.775 23.464 88.3669 23.638C87.9583 23.8124 87.5233 23.899 87.0616 23.899C86.3512 23.899 85.741 23.7038 85.2322 23.3136C84.7233 22.9235 84.2909 22.4115 83.9359 21.7783C83.5805 21.1452 83.2934 20.4251 83.0743 19.6179C82.8552 18.8108 82.6864 17.988 82.5681 17.1488C82.4498 16.3096 82.3697 15.4948 82.3283 14.7033C82.2869 13.9118 82.2662 13.2106 82.2662 12.5983C82.2662 11.7118 82.2986 10.794 82.3638 9.84408C82.4286 8.8946 82.5325 7.96597 82.6747 7.05859C82.8165 6.15121 82.9969 5.29115 83.2165 4.4788C83.4356 3.66645 83.6961 2.95434 83.998 2.34207C84.2999 1.7302 84.6464 1.24503 85.0369 0.886171C85.427 0.528112 85.8711 0.34848 86.3683 0.34848C86.7593 0.34848 87.1111 0.430678 87.4252 0.593869C87.7388 0.757863 88.0024 1.0241 88.2157 1.39339C88.429 1.76268 88.5945 2.24303 88.7129 2.83365C88.8312 3.42467 88.8906 4.1472 88.8906 5.00205C88.8906 6.05739 88.7664 7.1468 88.5176 8.2703C88.2688 9.3938 87.9313 10.5257 87.5053 11.6653C87.0792 12.8048 86.5757 13.9419 85.9957 15.0758C85.4153 16.2102 84.7939 17.3152 84.1307 18.3918C84.4268 19.7318 84.8236 20.7844 85.3208 21.5494C85.818 22.3148 86.416 22.6969 87.1143 22.6969C87.5876 22.6969 88.0438 22.5309 88.4821 22.1985C88.9198 21.8661 89.3226 21.4732 89.6897 21.0193C90.0564 20.5658 90.3795 20.1043 90.6575 19.6344C90.9356 19.1649 91.152 18.7876 91.3059 18.5029C91.3648 18.3974 91.4476 18.3156 91.5542 18.2575C91.6609 18.1993 91.7792 18.1705 91.9097 18.1705C92.1108 18.1705 92.2737 18.2338 92.3979 18.3605C92.522 18.4872 92.5846 18.6296 92.5846 18.788C92.5841 18.8505 92.5603 18.9351 92.5131 19.0406ZM83.6155 12.6781C83.6155 13.3533 83.6335 14.0025 83.6691 14.6248C83.7046 15.2475 83.7519 15.8437 83.8108 16.4131C84.308 15.5586 84.7818 14.6484 85.2317 13.6829C85.6817 12.7174 86.0781 11.7418 86.4218 10.7551C86.7651 9.7687 87.0405 8.78714 87.2474 7.8112C87.4544 6.83526 87.5579 5.90422 87.5579 5.01769C87.5579 3.7731 87.4454 2.88096 87.2204 2.34287C86.9955 1.80478 86.6936 1.53573 86.3147 1.53573C86.0659 1.53573 85.8265 1.6889 85.5953 1.99483C85.3645 2.30117 85.148 2.71777 84.9469 3.24504C84.7453 3.7727 84.5622 4.3954 84.3962 5.11272C84.2302 5.83044 84.0911 6.60029 83.9786 7.42347C83.8662 8.24665 83.7771 9.10671 83.7123 10.0033C83.6479 10.9002 83.6155 11.792 83.6155 12.6781Z" fill="white"/>
<path d="M105.034 19.0084C104.987 19.093 104.889 19.2695 104.741 19.5385C104.593 19.8075 104.404 20.1159 104.173 20.4643C103.942 20.8124 103.673 21.1764 103.365 21.5565C103.057 21.9363 102.714 22.2847 102.335 22.6011C101.956 22.9178 101.547 23.1788 101.109 23.3845C100.671 23.5902 100.209 23.6933 99.7242 23.6933C99.0376 23.6933 98.4598 23.498 97.9924 23.1079C97.5244 22.7177 97.1838 22.227 96.971 21.6359C96.5678 22.2374 96.0887 22.7149 95.5321 23.0682C94.9755 23.4218 94.4189 23.5982 93.8628 23.5982C93.4246 23.5982 93.0282 23.5269 92.6727 23.3845C92.3173 23.2422 92.0158 23.0417 91.767 22.7831C91.5182 22.5245 91.3256 22.2213 91.1897 21.8729C91.0534 21.5245 90.9855 21.1448 90.9855 20.7334C90.9855 19.9106 91.142 19.1853 91.4561 18.5573C91.7697 17.9298 92.1693 17.4046 92.6552 16.9824C93.1407 16.5606 93.6765 16.2438 94.2624 16.0329C94.8482 15.822 95.4138 15.7161 95.9586 15.7161C96.3253 15.7161 96.6628 15.761 96.971 15.8504C97.2787 15.9403 97.542 16.0381 97.7611 16.1432C97.9798 16.2486 98.1485 16.3464 98.2673 16.4359C98.3856 16.5257 98.4508 16.5758 98.4625 16.5862C98.593 16.7233 98.6587 16.8661 98.6587 17.0136C98.6587 17.172 98.593 17.312 98.4625 17.433C98.3325 17.5545 98.1786 17.6151 98.0014 17.6151C97.8115 17.6151 97.6517 17.5569 97.5217 17.4411C97.4979 17.4198 97.4448 17.3805 97.362 17.3224C97.2792 17.2646 97.1667 17.2037 97.0245 17.1403C96.8828 17.077 96.7141 17.0217 96.5184 16.9739C96.3231 16.9262 96.1013 16.9026 95.8524 16.9026C95.4853 16.9026 95.0943 16.9768 94.6804 17.1243C94.266 17.2723 93.8871 17.5016 93.5438 17.8128C93.2001 18.1243 92.9135 18.5144 92.6822 18.984C92.4514 19.4535 92.3357 20.0104 92.3357 20.654C92.3357 20.8545 92.3591 21.0573 92.4068 21.2634C92.4541 21.4691 92.5368 21.6568 92.6556 21.8252C92.774 21.994 92.9337 22.1315 93.1348 22.2366C93.3359 22.342 93.5848 22.395 93.8808 22.395C94.0941 22.395 94.3398 22.3316 94.6178 22.2049C94.8959 22.0786 95.1622 21.8833 95.4169 21.6195C95.6716 21.3561 95.9024 21.0237 96.1098 20.6223C96.3168 20.2213 96.4621 19.7466 96.5449 19.1981C96.5683 19.0505 96.6452 18.9266 96.7757 18.826C96.9058 18.7258 97.0601 18.6756 97.2374 18.6756C97.4029 18.6756 97.5478 18.7338 97.6725 18.8496C97.7966 18.9659 97.865 19.0978 97.8767 19.2454C97.8884 19.4459 97.9123 19.7282 97.9474 20.0922C97.9834 20.4563 98.063 20.818 98.1872 21.1764C98.3114 21.5353 98.4981 21.8464 98.7469 22.1103C98.9957 22.3741 99.3386 22.506 99.7768 22.506C100.061 22.506 100.342 22.4375 100.62 22.3003C100.899 22.1636 101.171 21.9816 101.437 21.7542C101.703 21.5277 101.958 21.2691 102.201 20.9788C102.443 20.6889 102.665 20.3958 102.867 20.1007C103.068 19.8051 103.245 19.5205 103.399 19.2458C103.553 18.9715 103.684 18.7342 103.79 18.5337C103.849 18.4178 103.935 18.328 104.048 18.2646C104.16 18.2013 104.282 18.1696 104.412 18.1696C104.613 18.1696 104.776 18.2358 104.9 18.3677C105.024 18.4996 105.087 18.6395 105.087 18.7871C105.087 18.8609 105.07 18.9347 105.034 19.0084Z" fill="white"/>
<path d="M151.814 0C152.217 0 152.652 0.0396953 153.12 0.118685C153.587 0.197675 154.022 0.329992 154.425 0.514435C154.828 0.699279 155.159 0.947475 155.419 1.25822C155.68 1.56937 155.81 1.9575 155.81 2.42141C155.81 2.99118 155.624 3.50802 155.251 3.97234C154.878 4.43665 154.354 4.83481 153.679 5.16721C153.004 5.4996 152.196 5.75823 151.255 5.94267C150.313 6.12751 149.274 6.21973 148.137 6.21973C146.859 6.21973 145.473 6.14074 143.982 5.98236C143.71 6.74219 143.505 7.59183 143.369 8.53048C143.233 9.46954 143.159 10.514 143.147 11.664C143.597 11.6536 144.056 11.646 144.524 11.6403C144.992 11.6351 145.474 11.6323 145.971 11.6323C146.635 11.6323 147.303 11.6403 147.978 11.6564C148.653 11.672 149.334 11.6905 150.021 11.7117C150.222 11.7225 150.379 11.7883 150.492 11.9098C150.604 12.0313 150.66 12.1708 150.66 12.3292C150.66 12.498 150.595 12.6355 150.465 12.7406C150.334 12.846 150.18 12.899 150.003 12.899C149.328 12.899 148.656 12.8885 147.988 12.8673C147.319 12.846 146.658 12.8356 146.007 12.8356C145.51 12.8356 145.024 12.8384 144.551 12.8436C144.078 12.8489 143.61 12.8569 143.148 12.8673C143.148 13.0152 143.151 13.1576 143.157 13.2943C143.163 13.4318 143.167 13.5742 143.167 13.7217C143.167 15.3677 142.888 16.8316 142.332 18.1139C141.775 19.3958 140.961 20.4748 139.89 21.3505C138.818 22.2266 137.501 22.891 135.938 23.3449C134.375 23.7983 132.581 24.0253 130.557 24.0253C129.065 24.0253 127.742 23.9066 126.588 23.6692C125.433 23.4319 124.421 23.1179 123.551 22.7274C122.68 22.3372 121.934 21.8966 121.313 21.4058C120.691 20.915 120.173 20.4194 119.759 19.9182C119.344 19.417 119.013 18.9319 118.764 18.4623C118.515 17.9928 118.332 17.5894 118.213 17.2514C118.201 17.2197 118.192 17.1909 118.186 17.1644C118.18 17.1383 118.177 17.1091 118.177 17.0774C118.177 16.919 118.242 16.7795 118.373 16.658C118.503 16.5369 118.669 16.476 118.87 16.476C119.012 16.476 119.139 16.5132 119.252 16.5866C119.364 16.6608 119.445 16.7606 119.492 16.8873C119.598 17.1829 119.758 17.5365 119.971 17.9479C120.184 18.3593 120.477 18.7843 120.85 19.2222C121.223 19.66 121.685 20.0954 122.235 20.5277C122.786 20.9607 123.455 21.3457 124.242 21.6833C125.03 22.0209 125.941 22.2951 126.977 22.506C128.013 22.7173 129.206 22.8228 130.556 22.8228C134.274 22.8228 137.083 22.0529 138.983 20.512C140.884 18.9716 141.833 16.6977 141.833 13.6905C141.833 13.5642 141.83 13.4347 141.824 13.3027C141.818 13.1708 141.815 13.0417 141.815 12.915C140.619 12.9571 139.518 13.0076 138.512 13.0654C137.505 13.1235 136.626 13.1816 135.874 13.2398C135.123 13.2979 134.516 13.3452 134.054 13.3821C133.592 13.4194 133.308 13.4375 133.201 13.4375C133 13.4375 132.822 13.3873 132.668 13.2871C132.514 13.1869 132.437 13.0365 132.437 12.836C132.437 12.6885 132.496 12.559 132.615 12.4483C132.733 12.3376 132.876 12.2719 133.041 12.2502C133.053 12.2502 133.281 12.2294 133.725 12.1869C134.169 12.1448 134.782 12.0946 135.564 12.0365C136.345 11.9784 137.268 11.9202 138.334 11.8621C139.4 11.8043 140.56 11.7538 141.815 11.7117C141.838 9.38012 142.111 7.41741 142.632 5.82398C141.341 5.65558 140.026 5.45189 138.689 5.21452C137.35 4.97715 136.018 4.72655 134.692 4.46272C133.366 4.19888 132.061 3.93785 130.777 3.67923C129.492 3.42061 128.257 3.18645 127.074 2.97514C125.889 2.76424 124.777 2.59543 123.735 2.46873C122.693 2.34202 121.745 2.27867 120.893 2.27867C119.697 2.27867 118.584 2.38693 117.554 2.60305C116.524 2.81957 115.633 3.13312 114.882 3.54491C114.129 3.9563 113.538 4.46031 113.106 5.05654C112.673 5.65277 112.457 6.3308 112.457 7.09022C112.457 7.58621 112.561 8.03208 112.768 8.42743C112.975 8.82318 113.209 9.1612 113.47 9.44027C113.73 9.72014 113.973 9.93626 114.198 10.089C114.423 10.2422 114.547 10.324 114.571 10.3344C114.677 10.3873 114.754 10.4611 114.802 10.5561C114.849 10.6512 114.873 10.7462 114.873 10.8408C114.873 11.0205 114.805 11.1656 114.669 11.2759C114.533 11.3865 114.381 11.4423 114.216 11.4423C114.085 11.4423 113.961 11.4054 113.843 11.3316C113.559 11.1632 113.257 10.9415 112.937 10.6668C112.617 10.3926 112.324 10.0786 112.058 9.72495C111.792 9.3717 111.569 8.97314 111.392 8.53008C111.214 8.08702 111.126 7.60666 111.126 7.08982C111.126 6.14034 111.377 5.29632 111.881 4.55774C112.384 3.81917 113.073 3.19126 113.95 2.67442C114.826 2.15758 115.859 1.76424 117.049 1.49519C118.239 1.22614 119.527 1.09182 120.912 1.09182C121.729 1.09182 122.658 1.15798 123.7 1.2895C124.742 1.42181 125.864 1.59302 127.066 1.80393C128.267 2.01484 129.528 2.25261 130.848 2.51604C132.168 2.77947 133.515 3.04611 134.889 3.31516C136.262 3.58421 137.641 3.84042 139.027 4.083C140.412 4.32559 141.768 4.53168 143.094 4.70008C143.425 3.87731 143.902 3.16761 144.524 2.57137C145.145 1.97554 145.852 1.48717 146.646 1.10746C147.439 0.727747 148.283 0.447875 149.177 0.268645C150.071 0.0898157 150.95 0 151.814 0ZM154.461 2.39014C154.461 2.13673 154.369 1.93384 154.186 1.78068C154.002 1.62791 153.774 1.50642 153.502 1.4166C153.229 1.32719 152.942 1.26624 152.64 1.23456C152.338 1.20289 152.063 1.18685 151.814 1.18685C151.246 1.18685 150.616 1.23978 149.923 1.34523C149.23 1.45108 148.544 1.64074 147.863 1.915C147.182 2.18966 146.542 2.56376 145.944 3.0385C145.347 3.51324 144.858 4.12029 144.479 4.85887C145.794 4.98557 147.007 5.04892 148.12 5.04892C149.032 5.04892 149.875 4.98316 150.651 4.85085C151.427 4.71893 152.096 4.53729 152.658 4.30474C153.22 4.07298 153.661 3.79311 153.981 3.46592C154.301 3.13914 154.461 2.78028 154.461 2.39014Z" fill="white"/>
<path d="M150.625 21.6833C150.874 21.9892 151.193 22.2346 151.584 22.419C151.975 22.6035 152.455 22.6957 153.022 22.6957C153.602 22.6957 154.129 22.5718 154.603 22.324C155.077 22.0762 155.509 21.7518 155.9 21.3505C156.29 20.9495 156.64 20.5012 156.948 20.0052C157.255 19.5092 157.534 19.0132 157.782 18.5177C157.841 18.4014 157.924 18.3148 158.031 18.2566C158.137 18.1985 158.256 18.1696 158.386 18.1696C158.587 18.1696 158.75 18.233 158.874 18.3597C158.999 18.4864 159.061 18.6235 159.061 18.7711C159.061 18.824 159.055 18.8689 159.043 18.9054C159.031 18.9427 159.014 18.982 158.99 19.0241C158.173 20.6279 157.282 21.836 156.317 22.6484C155.352 23.4607 154.26 23.8773 153.04 23.8986C152.259 23.8986 151.584 23.7643 151.016 23.4952C150.447 23.2262 149.98 22.8777 149.613 22.4507C149.246 22.0237 148.973 21.5405 148.796 21.0028C148.618 20.4647 148.53 19.9262 148.53 19.3885C148.53 18.8505 148.604 18.3545 148.752 17.901C148.9 17.4475 149.113 17.0517 149.391 16.7141C149.669 16.3765 150.001 16.1127 150.386 15.9226C150.77 15.7326 151.194 15.6379 151.656 15.6379C151.927 15.6379 152.197 15.6881 152.464 15.7883C152.73 15.8885 152.97 16.0309 153.183 16.2153C153.396 16.4002 153.567 16.6247 153.698 16.8881C153.828 17.152 153.894 17.4527 153.894 17.7903C153.894 18.2229 153.811 18.6291 153.645 19.0092C153.479 19.3889 153.251 19.7426 152.961 20.0698C152.671 20.397 152.325 20.6977 151.922 20.9719C151.519 21.2454 151.086 21.4828 150.625 21.6833ZM150.092 20.6544C150.459 20.5173 150.793 20.3432 151.095 20.1319C151.397 19.921 151.655 19.6889 151.868 19.4355C152.081 19.1825 152.247 18.9162 152.365 18.6363C152.483 18.3569 152.543 18.0746 152.543 17.7895C152.543 17.4727 152.454 17.233 152.276 17.0694C152.098 16.9058 151.891 16.824 151.655 16.824C151.335 16.824 151.063 16.903 150.838 17.0614C150.613 17.2197 150.429 17.4254 150.287 17.6788C150.145 17.9322 150.041 18.2145 149.976 18.5257C149.911 18.8368 149.879 19.1456 149.879 19.4515C149.879 19.6416 149.899 19.842 149.941 20.0529C149.982 20.2642 150.033 20.4643 150.092 20.6544Z" fill="white"/>
<path d="M159.646 16.9194C159.599 17.2041 159.54 17.4708 159.469 17.7186C159.398 17.9667 159.329 18.1829 159.264 18.3677C159.2 18.5526 159.143 18.7025 159.096 18.8188C159.049 18.9351 159.018 18.9984 159.007 19.0088C158.888 19.2514 158.681 19.3729 158.385 19.3729C158.22 19.3729 158.066 19.3176 157.924 19.2065C157.782 19.0959 157.71 18.9559 157.71 18.7871C157.71 18.7238 157.722 18.6765 157.746 18.6448C157.77 18.6131 157.805 18.5497 157.853 18.4547C157.899 18.3597 157.959 18.2017 158.03 17.98C158.102 17.7582 158.19 17.4158 158.297 16.9511C158.096 16.9511 157.888 16.9459 157.675 16.9355C157.462 16.925 157.264 16.8878 157.08 16.8248C156.897 16.7615 156.746 16.6612 156.627 16.5241C156.509 16.387 156.449 16.1973 156.449 15.9543C156.449 15.7751 156.506 15.5325 156.618 15.2262C156.731 14.9202 156.882 14.6195 157.071 14.324C157.26 14.0289 157.474 13.7727 157.71 13.5562C157.947 13.34 158.184 13.2318 158.421 13.2318C158.693 13.2318 158.915 13.3216 159.087 13.5008C159.258 13.6805 159.391 13.8994 159.486 14.1576C159.581 14.4162 159.649 14.6877 159.691 14.9728C159.732 15.2574 159.753 15.5056 159.753 15.7165C159.954 15.7165 160.153 15.7141 160.348 15.7085C160.543 15.7033 160.73 15.7005 160.907 15.7005C161.582 15.7005 162.097 15.8328 162.452 16.0963C162.808 16.3601 162.985 16.7927 162.985 17.3942C162.985 17.6368 162.968 17.8902 162.932 18.154C162.897 18.4178 162.855 18.6897 162.808 18.9692C162.761 19.2486 162.72 19.5257 162.684 19.7999C162.648 20.0746 162.631 20.3433 162.631 20.6071C162.631 20.9868 162.69 21.3008 162.809 21.5485C162.927 21.7967 163.075 21.9944 163.252 22.142C163.43 22.2899 163.619 22.3926 163.821 22.4507C164.022 22.5088 164.205 22.5377 164.372 22.5377C164.881 22.5377 165.36 22.3902 165.81 22.0947C166.26 21.7995 166.674 21.4431 167.053 21.0265C167.432 20.6095 167.773 20.1692 168.075 19.7049C168.377 19.2406 168.628 18.8344 168.83 18.486C168.889 18.391 168.972 18.3176 169.079 18.2643C169.185 18.2117 169.297 18.1853 169.416 18.1853C169.629 18.1853 169.795 18.2462 169.913 18.3673C170.031 18.4888 170.091 18.6231 170.091 18.7707C170.091 18.8761 170.067 18.9712 170.02 19.0554C169.748 19.4884 169.43 19.976 169.07 20.5193C168.709 21.0626 168.297 21.5718 167.836 22.0465C167.374 22.5213 166.856 22.9226 166.282 23.2494C165.708 23.5762 165.077 23.7402 164.39 23.7402C163.964 23.7402 163.561 23.6688 163.183 23.5265C162.803 23.3842 162.475 23.1785 162.197 22.9094C161.919 22.6404 161.697 22.308 161.531 21.9122C161.365 21.5165 161.282 21.071 161.282 20.575C161.282 20.0477 161.341 19.5225 161.46 19C161.579 18.478 161.638 17.9792 161.638 17.5044C161.638 17.304 161.588 17.1536 161.487 17.0534C161.386 16.9531 161.164 16.903 160.821 16.903C160.655 16.903 160.475 16.903 160.28 16.903C160.084 16.903 159.871 16.909 159.646 16.9194ZM158.457 15.7482C158.457 15.6744 158.454 15.5766 158.448 15.4555C158.442 15.3344 158.43 15.2157 158.412 15.0995C158.394 14.9836 158.37 14.8833 158.341 14.7987C158.312 14.7145 158.279 14.6724 158.244 14.6724C158.208 14.6724 158.163 14.7121 158.11 14.7911C158.057 14.8701 158.001 14.9651 157.942 15.0758C157.882 15.1865 157.829 15.3052 157.782 15.4319C157.735 15.5586 157.699 15.664 157.675 15.7486H158.457V15.7482Z" fill="white"/>
<path d="M170.676 16.9194C170.629 17.2041 170.57 17.4708 170.498 17.7186C170.427 17.9667 170.359 18.1829 170.294 18.3677C170.229 18.5526 170.172 18.7025 170.125 18.8188C170.078 18.9351 170.048 18.9984 170.036 19.0088C169.918 19.2514 169.71 19.3729 169.415 19.3729C169.249 19.3729 169.095 19.3176 168.953 19.2065C168.811 19.0959 168.74 18.9559 168.74 18.7871C168.74 18.7238 168.751 18.6765 168.775 18.6448C168.799 18.6131 168.835 18.5497 168.882 18.4547C168.929 18.3597 168.988 18.2017 169.06 17.98C169.131 17.7582 169.219 17.4158 169.326 16.9511C169.125 16.9511 168.917 16.9459 168.704 16.9355C168.491 16.925 168.293 16.8878 168.109 16.8248C167.926 16.7615 167.775 16.6612 167.657 16.5241C167.538 16.387 167.479 16.1973 167.479 15.9543C167.479 15.7751 167.535 15.5325 167.647 15.2262C167.76 14.9202 167.911 14.6195 168.1 14.324C168.29 14.0289 168.503 13.7727 168.74 13.5562C168.976 13.34 169.213 13.2318 169.45 13.2318C169.722 13.2318 169.945 13.3216 170.116 13.5008C170.287 13.6805 170.421 13.8994 170.516 14.1576C170.611 14.4162 170.678 14.6877 170.72 14.9728C170.761 15.2574 170.782 15.5056 170.782 15.7165C170.983 15.7165 171.182 15.7141 171.377 15.7085C171.572 15.7033 171.759 15.7005 171.937 15.7005C172.611 15.7005 173.127 15.8328 173.482 16.0963C173.837 16.3601 174.015 16.7927 174.015 17.3942C174.015 17.6368 173.997 17.8902 173.962 18.154C173.926 18.4178 173.884 18.6897 173.837 18.9692C173.79 19.2486 173.749 19.5257 173.713 19.7999C173.678 20.0746 173.66 20.3433 173.66 20.6071C173.66 20.9868 173.719 21.3008 173.838 21.5485C173.956 21.7967 174.104 21.9944 174.282 22.142C174.459 22.2899 174.648 22.3926 174.85 22.4507C175.051 22.5088 175.235 22.5377 175.401 22.5377C175.91 22.5377 176.389 22.3902 176.839 22.0947C177.289 21.7995 177.703 21.4431 178.083 21.0265C178.462 20.6095 178.802 20.1692 179.104 19.7049C179.406 19.2406 179.657 18.8344 179.859 18.486C179.918 18.391 180.001 18.3176 180.108 18.2643C180.214 18.2117 180.327 18.1853 180.445 18.1853C180.659 18.1853 180.824 18.2462 180.942 18.3673C181.061 18.4888 181.12 18.6231 181.12 18.7707C181.12 18.8761 181.096 18.9712 181.049 19.0554C180.777 19.4884 180.46 19.976 180.099 20.5193C179.738 21.0626 179.327 21.5718 178.865 22.0465C178.403 22.5213 177.885 22.9226 177.311 23.2494C176.737 23.5762 176.106 23.7402 175.419 23.7402C174.993 23.7402 174.591 23.6688 174.212 23.5265C173.833 23.3842 173.504 23.1785 173.226 22.9094C172.948 22.6404 172.726 22.308 172.561 21.9122C172.395 21.5165 172.312 21.071 172.312 20.575C172.312 20.0477 172.371 19.5225 172.489 19C172.608 18.478 172.667 17.9792 172.667 17.5044C172.667 17.304 172.617 17.1536 172.516 17.0534C172.415 16.9531 172.193 16.903 171.851 16.903C171.685 16.903 171.504 16.903 171.309 16.903C171.114 16.903 170.901 16.909 170.676 16.9194ZM169.486 15.7482C169.486 15.6744 169.483 15.5766 169.477 15.4555C169.471 15.3344 169.459 15.2157 169.442 15.0995C169.424 14.9836 169.4 14.8833 169.371 14.7987C169.341 14.7145 169.308 14.6724 169.273 14.6724C169.237 14.6724 169.193 14.7121 169.14 14.7911C169.086 14.8701 169.03 14.9651 168.971 15.0758C168.912 15.1865 168.858 15.3052 168.811 15.4319C168.764 15.5586 168.728 15.664 168.705 15.7486H169.486V15.7482Z" fill="white"/>
<path d="M193.569 19.0084C193.522 19.093 193.424 19.2695 193.276 19.5385C193.128 19.8075 192.939 20.1159 192.707 20.4643C192.477 20.8124 192.207 21.1764 191.899 21.5565C191.591 21.9363 191.248 22.2847 190.869 22.6011C190.49 22.9178 190.082 23.1788 189.644 23.3845C189.206 23.5902 188.744 23.6933 188.258 23.6933C187.572 23.6933 186.994 23.498 186.527 23.1079C186.059 22.7177 185.719 22.227 185.505 21.6359C185.103 22.2374 184.623 22.7149 184.067 23.0682C183.51 23.4218 182.954 23.5982 182.397 23.5982C181.959 23.5982 181.563 23.5269 181.207 23.3845C180.852 23.2422 180.55 23.0417 180.301 22.7831C180.053 22.5245 179.86 22.2213 179.724 21.8729C179.588 21.5245 179.52 21.1448 179.52 20.7334C179.52 19.9106 179.677 19.1853 179.991 18.5573C180.304 17.9298 180.704 17.4046 181.189 16.9824C181.675 16.5606 182.211 16.2438 182.797 16.0329C183.383 15.822 183.948 15.7161 184.493 15.7161C184.86 15.7161 185.197 15.761 185.505 15.8504C185.813 15.9403 186.077 16.0381 186.296 16.1432C186.515 16.2486 186.683 16.3464 186.802 16.4359C186.92 16.5257 186.985 16.5758 186.997 16.5862C187.127 16.7233 187.193 16.8661 187.193 17.0136C187.193 17.172 187.127 17.312 186.997 17.433C186.867 17.5545 186.713 17.6151 186.536 17.6151C186.346 17.6151 186.187 17.5569 186.056 17.4411C186.033 17.4198 185.979 17.3805 185.897 17.3224C185.813 17.2646 185.701 17.2037 185.559 17.1403C185.418 17.077 185.249 17.0217 185.053 16.9739C184.858 16.9262 184.636 16.9026 184.387 16.9026C184.021 16.9026 183.63 16.9768 183.216 17.1243C182.801 17.2723 182.422 17.5016 182.079 17.8128C181.735 18.1243 181.449 18.5144 181.218 18.984C180.987 19.4535 180.871 20.0104 180.871 20.654C180.871 20.8545 180.895 21.0573 180.942 21.2634C180.989 21.4691 181.072 21.6568 181.191 21.8252C181.309 21.994 181.469 22.1315 181.67 22.2366C181.871 22.342 182.12 22.395 182.416 22.395C182.629 22.395 182.875 22.3316 183.153 22.2049C183.431 22.0786 183.697 21.8833 183.952 21.6195C184.206 21.3561 184.438 21.0237 184.645 20.6223C184.852 20.2213 184.997 19.7466 185.08 19.1981C185.104 19.0505 185.18 18.9266 185.311 18.826C185.441 18.7258 185.595 18.6756 185.773 18.6756C185.938 18.6756 186.083 18.7338 186.208 18.8496C186.332 18.9659 186.4 19.0978 186.412 19.2454C186.424 19.4459 186.447 19.7282 186.483 20.0922C186.519 20.4563 186.599 20.818 186.723 21.1764C186.847 21.5353 187.033 21.8464 187.282 22.1103C187.531 22.3741 187.874 22.506 188.312 22.506C188.596 22.506 188.878 22.4375 189.156 22.3003C189.434 22.1636 189.706 21.9816 189.973 21.7542C190.239 21.5277 190.493 21.2691 190.736 20.9788C190.979 20.6889 191.201 20.3958 191.402 20.1007C191.603 19.8055 191.781 19.5205 191.935 19.2458C192.089 18.9715 192.219 18.7342 192.325 18.5337C192.385 18.4178 192.47 18.328 192.583 18.2646C192.695 18.2013 192.817 18.1696 192.947 18.1696C193.148 18.1696 193.311 18.2358 193.435 18.3677C193.56 18.4996 193.622 18.6395 193.622 18.7871C193.622 18.8609 193.604 18.9347 193.569 19.0084Z" fill="white"/>
<path d="M194.208 16.9194C194.161 17.2041 194.102 17.4708 194.03 17.7186C193.959 17.9667 193.891 18.1829 193.826 18.3677C193.761 18.5526 193.704 18.7025 193.657 18.8188C193.61 18.9351 193.58 18.9984 193.569 19.0088C193.45 19.2514 193.242 19.3729 192.947 19.3729C192.781 19.3729 192.627 19.3176 192.485 19.2065C192.343 19.0959 192.272 18.9559 192.272 18.7871C192.272 18.7238 192.284 18.6765 192.307 18.6448C192.331 18.6131 192.367 18.5497 192.414 18.4547C192.461 18.3597 192.52 18.2017 192.592 17.98C192.663 17.7582 192.752 17.4158 192.858 16.9511C192.657 16.9511 192.45 16.9459 192.236 16.9355C192.023 16.925 191.825 16.8878 191.642 16.8248C191.458 16.7615 191.307 16.6612 191.189 16.5241C191.071 16.387 191.011 16.1973 191.011 15.9543C191.011 15.7751 191.067 15.5325 191.179 15.2262C191.292 14.9202 191.443 14.6195 191.633 14.324C191.822 14.0289 192.035 13.7727 192.272 13.5562C192.509 13.34 192.746 13.2318 192.982 13.2318C193.255 13.2318 193.477 13.3216 193.648 13.5008C193.82 13.6805 193.953 13.8994 194.048 14.1576C194.143 14.4162 194.21 14.6877 194.252 14.9728C194.293 15.2574 194.315 15.5056 194.315 15.7165C194.515 15.7165 194.714 15.7141 194.909 15.7085C195.105 15.7033 195.291 15.7005 195.469 15.7005C196.144 15.7005 196.659 15.8328 197.014 16.0963C197.369 16.3601 197.547 16.7927 197.547 17.3942C197.547 17.6368 197.529 17.8902 197.494 18.154C197.458 18.4178 197.416 18.6897 197.37 18.9692C197.322 19.2486 197.281 19.5257 197.245 19.7999C197.21 20.0746 197.192 20.3433 197.192 20.6071C197.192 20.9868 197.251 21.3008 197.37 21.5485C197.488 21.7967 197.636 21.9944 197.814 22.142C197.991 22.2899 198.18 22.3926 198.382 22.4507C198.584 22.5088 198.767 22.5377 198.933 22.5377C199.442 22.5377 199.921 22.3902 200.372 22.0947C200.822 21.7995 201.236 21.4431 201.615 21.0265C201.994 20.6095 202.334 20.1692 202.636 19.7049C202.938 19.2406 203.19 18.8344 203.391 18.486C203.451 18.391 203.533 18.3176 203.64 18.2643C203.747 18.2117 203.859 18.1853 203.977 18.1853C204.191 18.1853 204.356 18.2462 204.475 18.3673C204.593 18.4888 204.652 18.6231 204.652 18.7707C204.652 18.8761 204.629 18.9712 204.581 19.0554C204.309 19.4884 203.992 19.976 203.631 20.5193C203.27 21.0626 202.859 21.5718 202.397 22.0465C201.936 22.5213 201.417 22.9226 200.843 23.2494C200.269 23.5762 199.638 23.7402 198.952 23.7402C198.526 23.7402 198.123 23.6688 197.744 23.5265C197.365 23.3842 197.036 23.1785 196.758 22.9094C196.48 22.6404 196.258 22.308 196.093 21.9122C195.927 21.5165 195.844 21.071 195.844 20.575C195.844 20.0477 195.903 19.5225 196.022 19C196.14 18.478 196.199 17.9792 196.199 17.5044C196.199 17.304 196.149 17.1536 196.049 17.0534C195.947 16.9531 195.726 16.903 195.383 16.903C195.217 16.903 195.036 16.903 194.841 16.903C194.646 16.903 194.433 16.909 194.208 16.9194ZM193.018 15.7482C193.018 15.6744 193.015 15.5766 193.009 15.4555C193.003 15.3344 192.991 15.2157 192.973 15.0995C192.955 14.9836 192.931 14.8833 192.902 14.7987C192.873 14.7145 192.84 14.6724 192.805 14.6724C192.769 14.6724 192.725 14.7121 192.671 14.7911C192.618 14.8701 192.562 14.9651 192.503 15.0758C192.443 15.1865 192.39 15.3052 192.343 15.4319C192.296 15.5586 192.26 15.664 192.236 15.7486H193.018V15.7482Z" fill="white"/>
<path d="M211.56 21.6833C211.264 21.6833 211.003 21.662 210.778 21.6199C210.601 21.9367 210.388 22.2294 210.139 22.4984C209.89 22.7675 209.603 23.0024 209.278 23.2025C208.952 23.403 208.588 23.5614 208.185 23.6772C207.782 23.7935 207.344 23.8517 206.871 23.8517C206.314 23.8517 205.805 23.7647 205.343 23.5906C204.882 23.4166 204.479 23.1736 204.135 22.8625C203.792 22.5513 203.526 22.1768 203.336 21.739C203.147 21.3011 203.052 20.8184 203.052 20.2907C203.052 19.6155 203.188 19.0273 203.46 18.5261C203.733 18.0249 204.047 17.6079 204.402 17.2759C204.757 16.9435 205.112 16.6957 205.468 16.5321C205.823 16.3685 206.089 16.2867 206.266 16.2867C206.467 16.2867 206.619 16.3344 206.719 16.429C206.82 16.5237 206.871 16.6508 206.871 16.8088C206.871 16.9884 206.808 17.1227 206.684 17.2121C206.56 17.3019 206.403 17.3889 206.213 17.4731C206.024 17.5577 205.823 17.6764 205.609 17.8292C205.396 17.9824 205.198 18.1748 205.015 18.407C204.831 18.6391 204.68 18.9134 204.562 19.2298C204.443 19.5465 204.384 19.8998 204.384 20.2903C204.384 20.6383 204.443 20.9627 204.562 21.2634C204.68 21.5642 204.852 21.8232 205.077 22.0393C205.302 22.2558 205.568 22.4242 205.876 22.5457C206.184 22.6672 206.527 22.7278 206.906 22.7278C207.581 22.7278 208.14 22.5878 208.584 22.3084C209.028 22.0289 209.368 21.6728 209.605 21.2398C208.907 20.913 208.332 20.4483 207.883 19.8468C207.433 19.2454 207.208 18.5702 207.208 17.8212C207.208 17.2197 207.37 16.729 207.696 16.3492C208.022 15.9691 208.451 15.7795 208.984 15.7795C209.303 15.7795 209.605 15.848 209.89 15.9852C210.174 16.1223 210.425 16.3388 210.645 16.6343C210.863 16.9298 211.038 17.3096 211.168 17.7739C211.299 18.2382 211.364 18.7923 211.364 19.4359C211.364 19.7739 211.317 20.1271 211.222 20.4964C211.293 20.5068 211.364 20.512 211.436 20.512C211.506 20.512 211.583 20.512 211.666 20.512C212.069 20.512 212.43 20.4703 212.75 20.3857C213.069 20.3015 213.359 20.1748 213.62 20.006C213.881 19.8372 214.115 19.6211 214.322 19.3569C214.529 19.0934 214.727 18.7871 214.917 18.4387C214.952 18.3753 215.029 18.3148 215.148 18.2566C215.266 18.1985 215.384 18.1696 215.503 18.1696C215.657 18.1696 215.802 18.225 215.938 18.336C216.074 18.4471 216.142 18.5918 216.142 18.7711C216.142 18.8557 216.119 18.9479 216.071 19.0481C216.024 19.1484 215.976 19.2406 215.93 19.3248C215.728 19.6416 215.495 19.9447 215.228 20.235C214.961 20.5253 214.648 20.7783 214.286 20.9948C213.925 21.2113 213.52 21.3825 213.07 21.5092C212.619 21.6355 212.116 21.6937 211.56 21.6833ZM208.523 17.6949C208.523 17.8954 208.552 18.1063 208.611 18.328C208.67 18.5493 208.762 18.7687 208.886 18.9848C209.01 19.2013 209.164 19.407 209.348 19.6023C209.532 19.7975 209.748 19.9639 209.996 20.1011C210.031 19.8793 210.049 19.6632 210.049 19.4519C210.049 19.1672 210.026 18.8769 209.978 18.5814C209.931 18.2863 209.863 18.0144 209.774 17.7663C209.685 17.5185 209.576 17.318 209.446 17.1648C209.316 17.012 209.162 16.9355 208.984 16.9355C208.913 16.9355 208.818 16.9828 208.7 17.0778C208.582 17.1724 208.523 17.3781 208.523 17.6949Z" fill="white"/>
<path d="M46.2864 38.4284V31.841H47.3213L49.9827 36.4332L52.6229 31.841H53.6681V38.4284H52.7813V33.2528L50.3102 37.4874H49.6448L47.1737 33.262V38.4284H46.2864V38.4284Z" fill="white"/>
<path d="M58.4622 38.4284L61.1866 31.841H62.1265L64.8406 38.4284H63.9006L63.2248 36.7344H60.078L59.3918 38.4284H58.4622ZM60.3416 36.0948H62.9603L61.6509 32.8386L60.3416 36.0948Z" fill="white"/>
<path d="M69.6342 38.4284V31.841H70.521V34.8242L73.6048 31.841H74.7243L71.9788 34.4665L74.7666 38.4284H73.6894L71.3453 35.0784L70.5214 35.8595V38.4284H69.6342Z" fill="white"/>
<path d="M79.4761 38.4284V31.841H84.0488V32.4902H80.3634V34.7865H83.7321V35.4264H80.3634V37.7789H84.0488V38.4284H79.4761V38.4284Z" fill="white"/>
<path d="M91.7994 38.5415C91.2924 38.5415 90.8334 38.4521 90.4213 38.2732C90.0091 38.0944 89.6802 37.817 89.4341 37.4405C89.1875 37.0639 89.0647 36.584 89.0647 36.0006V31.841H89.9515V36.0098C89.9515 36.6498 90.1239 37.1141 90.469 37.4028C90.8141 37.6915 91.2645 37.8358 91.8206 37.8358C92.3767 37.8358 92.8235 37.6915 93.1614 37.4028C93.4993 37.1141 93.668 36.6498 93.668 36.0098V31.841H94.5553V36.0006C94.5553 36.584 94.432 37.0639 94.1859 37.4405C93.9393 37.817 93.6086 38.0944 93.1929 38.2732C92.7771 38.4521 92.3133 38.5415 91.7994 38.5415Z" fill="white"/>
<path d="M99.7507 38.4284V31.841H102.179C102.756 31.841 103.232 31.9256 103.605 32.0948C103.978 32.2644 104.254 32.4934 104.434 32.7817C104.613 33.0704 104.703 33.3967 104.703 33.7604C104.703 34.1181 104.615 34.4412 104.44 34.7295C104.263 35.0182 103.989 35.2488 103.616 35.4212C103.243 35.594 102.764 35.6802 102.18 35.6802H100.638V38.428H99.7507V38.4284ZM100.638 35.0126H102.159C102.75 35.0126 103.171 34.9012 103.42 34.6786C103.671 34.4561 103.796 34.1501 103.796 33.7608C103.796 33.3655 103.671 33.0567 103.42 32.8338C103.171 32.6113 102.75 32.4998 102.159 32.4998H100.638V35.0126Z" fill="white"/>
<path d="M115.591 38.4284L118.316 31.841H119.255L121.969 38.4284H121.029L120.353 36.7344H117.207L116.52 38.4284H115.591ZM117.471 36.0948H120.089L118.78 32.8386L117.471 36.0948Z" fill="white"/>
<path d="M126.763 38.4284V31.841H129.15C129.727 31.841 130.199 31.9256 130.565 32.0948C130.931 32.2644 131.202 32.4966 131.379 32.7913C131.555 33.0864 131.643 33.4124 131.643 33.77C131.643 34.1842 131.518 34.5575 131.268 34.8899C131.018 35.2227 130.629 35.4581 130.101 35.5956L131.717 38.428H130.671L129.172 35.7083H129.108H127.651V38.428H126.763V38.4284ZM127.65 35.0876H129.086C129.657 35.0876 130.072 34.9653 130.333 34.7207C130.593 34.4761 130.723 34.1622 130.723 33.7797C130.723 33.3907 130.594 33.082 130.338 32.8526C130.081 32.6237 129.66 32.509 129.076 32.509H127.65V35.0876Z" fill="white"/>
<path d="M138.453 38.4284V32.4902H136.246V31.841H141.547V32.4902H139.34V38.4284H138.453Z" fill="white"/>
<path d="M146.331 38.4284V31.841H147.218V38.4284H146.331V38.4284Z" fill="white"/>
<path d="M154.831 38.5413C154.289 38.5413 153.818 38.4535 153.416 38.2779C153.014 38.1023 152.705 37.8577 152.487 37.5437C152.269 37.2302 152.159 36.8661 152.159 36.4519H153.088C153.088 36.7093 153.155 36.9459 153.289 37.1624C153.422 37.379 153.618 37.5514 153.875 37.6801C154.132 37.8088 154.451 37.8729 154.831 37.8729C155.33 37.8729 155.718 37.7663 155.992 37.553C156.267 37.3397 156.404 37.073 156.404 36.753C156.404 36.4896 156.341 36.2779 156.214 36.1179C156.087 35.9579 155.916 35.8276 155.702 35.7274C155.487 35.6271 155.241 35.5393 154.962 35.464C154.684 35.3886 154.393 35.304 154.091 35.2097C153.521 35.0341 153.098 34.8164 152.824 34.5558C152.55 34.2955 152.412 33.9551 152.412 33.5349C152.405 33.1837 152.497 32.8713 152.686 32.5987C152.877 32.3256 153.146 32.1127 153.494 31.9587C153.843 31.8052 154.256 31.7282 154.735 31.7282C155.207 31.7282 155.617 31.8068 155.965 31.9635C156.313 32.1203 156.585 32.3368 156.779 32.6127C156.972 32.889 157.072 33.2025 157.08 33.5538H156.15C156.15 33.3717 156.098 33.1913 155.992 33.0125C155.886 32.8336 155.726 32.6877 155.512 32.575C155.297 32.4623 155.027 32.4058 154.703 32.4058C154.302 32.3994 153.973 32.4904 153.716 32.6789C153.459 32.8669 153.331 33.1275 153.331 33.4599C153.331 33.7422 153.421 33.9587 153.601 34.1095C153.781 34.2603 154.032 34.3842 154.356 34.4812C154.68 34.5786 155.053 34.6901 155.475 34.8152C155.827 34.9279 156.144 35.0598 156.425 35.2101C156.707 35.3605 156.927 35.5554 157.085 35.7935C157.244 36.0321 157.323 36.3364 157.323 36.7065C157.323 37.0205 157.231 37.3168 157.049 37.5959C156.865 37.8749 156.589 38.1027 156.219 38.2783C155.849 38.4539 155.387 38.5413 154.831 38.5413Z" fill="white"/>
<path d="M163.828 38.4284V32.4902H161.621V31.841H166.922V32.4902H164.715V38.4284H163.828Z" fill="white"/>
</svg>
